<svg width="41" height="43" viewBox="0 0 41 43" fill="none" xmlns="http://www.w3.org/2000/svg">
<path d="M17.4084 31.3305C17.1085 31.2191 16.8353 31.046 16.6066 30.8223C16.3778 30.5986 16.1987 30.3293 16.0806 30.0319C15.8295 29.4388 15.6881 28.805 15.6631 28.1614C15.6047 27.2971 15.6172 26.4245 15.5713 25.5602C15.5447 24.7872 15.4184 24.021 15.1955 23.2804C14.9987 22.6376 14.6475 22.0527 14.1725 21.5769C13.8814 21.3261 13.5532 21.1219 13.1997 20.9715C13.041 20.888 12.8823 20.7961 12.7279 20.6959C12.6569 20.6458 12.6569 20.6041 12.6903 20.5289C12.9128 20.0927 13.2583 19.7312 13.684 19.4892C14.0417 19.2573 14.4473 19.1093 14.8703 19.0566C15.2934 19.0038 15.7229 19.0475 16.1266 19.1844C16.7479 19.4034 17.2988 19.7856 17.7215 20.2909C18.2275 20.9004 18.6104 21.6023 18.8489 22.3577C18.9457 22.6653 19.0142 22.9812 19.0535 23.3013C19.0815 23.5225 19.1509 23.7364 19.2581 23.9318C19.2928 24.0001 19.3413 24.0605 19.4006 24.109C19.46 24.1576 19.5288 24.1932 19.6026 24.2136C19.6765 24.234 19.7538 24.2388 19.8297 24.2277C19.9055 24.2166 19.9782 24.1897 20.043 24.1489C20.2221 24.0484 20.383 23.9186 20.519 23.7648C21.8799 22.3362 23.3699 21.0363 24.9699 19.8817C26.5137 18.7669 28.1242 17.7476 29.7924 16.8296C31.3415 15.9653 32.9323 15.1928 34.5272 14.4204C35.3039 14.0446 36.0721 13.648 36.8779 13.3348C37.64 13.0203 38.4479 12.8314 39.2704 12.7753C39.5884 12.742 39.9097 12.7879 40.2057 12.9089C40.2779 12.9311 40.3428 12.9724 40.3934 13.0285C40.444 13.0847 40.4784 13.1535 40.4929 13.2276C40.5075 13.3017 40.5017 13.3784 40.4761 13.4495C40.4505 13.5206 40.4061 13.5834 40.3476 13.6313C40.1802 13.8147 39.9732 13.9575 39.7422 14.0488C38.6625 14.5371 37.6114 15.0863 36.594 15.6939C35.5752 16.2951 34.5857 16.9465 33.6212 17.6229C32.2893 18.5623 31.0116 19.5728 29.7715 20.6249C28.0597 22.0821 26.4313 23.6228 24.8405 25.2178C23.5461 26.4954 22.3019 27.819 21.0827 29.1551C20.6109 29.6645 20.1474 30.1823 19.638 30.6541C19.3184 30.975 18.9321 31.2216 18.5065 31.3764C18.1451 31.4801 17.7599 31.4639 17.4084 31.3305Z" fill="#54B916"/>
<path d="M28.9004 15.9736C27.8941 12.4329 27.89 12.3828 24.3075 12.696C18.1448 13.2304 11.9903 13.84 5.82755 14.4079C5.11357 14.4705 4.44552 14.4079 4.6167 15.5227C5.73152 22.8629 6.81293 30.2073 7.94444 37.6728C15.46 35.5559 22.8545 33.4641 30.2574 31.4098C31.1843 31.1509 31.4474 30.6582 31.2511 29.7397C30.9463 28.3117 30.7083 26.8754 30.4536 25.4391C29.9359 22.4829 29.9401 22.4788 32.9379 21.2637C33.6394 25.0215 34.3033 28.7793 35.0256 32.5121C35.2302 33.5434 34.558 33.6728 33.9108 33.8816C24.8587 36.7542 15.7982 39.5976 6.77117 42.5078C5.68141 42.8585 5.38496 42.7542 5.23048 41.5642C4.50397 36.1223 3.71344 30.6944 2.85889 25.2804C2.23259 21.293 1.37665 17.3473 0.829683 13.3432C0.541586 11.3515 0.232612 9.4601 0.0113193 7.35574C-0.0387846 6.85052 0.032196 5.9069 1.18041 5.91107C2.85054 5.91107 4.34531 5.6021 4.9382 7.92776C5.37661 9.64799 6.92148 10.6417 8.84213 10.3035C10.7628 9.96532 11.4058 8.4455 11.4016 6.75031C11.4016 5.76494 11.6521 5.64385 12.5289 5.59792C13.4893 5.552 14.3369 5.6522 15.4517 5.56035C18.1155 5.34323 18.8379 5.32235 19.6521 7.64801C20.1907 9.17618 21.865 9.71062 23.5351 9.36824C25.1092 9.04257 25.8816 7.91523 25.8942 6.36618C25.8942 5.5687 26.128 5.53112 26.9088 5.27225C28.0445 4.91317 29.5476 4.35368 29.9985 5.8902C30.7491 8.41801 31.2483 11.0137 31.4891 13.6396C31.6311 15.0717 29.7772 15.126 28.9004 15.9736Z" fill="#1A5CB2"/>
<path d="M10.3785 6.29935C10.3785 7.5937 10.0778 8.57073 8.9338 8.97991C8.40995 9.19539 7.8245 9.20735 7.29228 9.01347C6.76006 8.81959 6.3195 8.43384 6.057 7.9319C5.08832 6.33275 4.84615 4.45386 4.57476 2.65847C4.544 2.38563 4.56736 2.1094 4.6435 1.8456C4.71965 1.5818 4.84708 1.33562 5.01851 1.12114C5.18994 0.906664 5.40199 0.728109 5.64252 0.595701C5.88305 0.463293 6.14734 0.379633 6.42025 0.349512C7.76053 0.149096 8.83777 0.863077 9.45571 2.01964C10.1822 3.41003 10.0945 4.9883 10.3785 6.29935Z" fill="#FE5656"/>
<path d="M19.4316 3.23881C19.4567 0.838002 20.7594 0.0238135 22.5631 0.863054C24.3669 1.70229 25.5526 5.55195 24.6174 7.2346C24.4311 7.61262 24.1348 7.92541 23.7674 8.13184C23.4 8.33827 22.9787 8.42867 22.5589 8.39117C21.9951 8.37402 21.4508 8.18136 21.0017 7.84006C20.5526 7.49876 20.2212 7.02584 20.0537 6.48722C19.7753 5.41923 19.5675 4.33409 19.4316 3.23881Z" fill="#FE5656"/>
</svg>
